<?xml version="1.0" encoding="UTF-8"?>
<svg version="1.1" xmlns="http://www.w3.org/2000/svg" width="500" height="500">
<path d="M0 0 C165 0 330 0 500 0 C500 165 500 330 500 500 C335 500 170 500 0 500 C0 335 0 170 0 0 Z " fill="#000000" transform="translate(0,0)"/>
<path d="M0 0 C13.2 0 26.4 0 40 0 C48.13201253 14.77616795 55.99981955 29.6449343 63.625 44.6875 C65.55288335 48.48399205 67.48269021 52.27950047 69.4140625 56.07421875 C70.1161232 57.45384544 70.1161232 57.45384544 70.83236694 58.86134338 C75.12311279 67.27540932 79.51469435 75.63461667 83.9331665 83.98214722 C86.34456707 88.54316949 88.73277894 93.11639923 91.125 97.6875 C91.60453125 98.60337891 92.0840625 99.51925781 92.578125 100.46289062 C93.71893196 102.64183192 94.8595614 104.82086589 96 107 C101.98679117 96.73930514 107.50873893 86.25091889 112.9375 75.6875 C113.28779266 75.00600891 113.63808533 74.32451782 113.99899292 73.62237549 C115.39099953 70.91361235 116.78263134 68.20465718 118.17366028 65.49539185 C129.47090552 43.5013479 141.27810338 21.76923659 153 0 C166.2 0 179.4 0 193 0 C193 63.03 193 126.06 193 191 C180.79 191 168.58 191 156 191 C155.67 150.08 155.34 109.16 155 67 C152.36 72.28 149.72 77.56 147 83 C144.55137496 87.77610758 142.09659358 92.54833542 139.625 97.3125 C138.96484309 98.58650682 138.30468685 99.86051399 137.64453125 101.13452148 C127.59733703 120.51343352 117.3249375 139.76808308 107 159 C100.07 159 93.14 159 86 159 C85.27296875 157.59492188 84.5459375 156.18984375 83.796875 154.7421875 C78.7751571 145.06366038 73.71143617 135.41866597 68.4375 125.875 C62.77707484 115.60391885 57.41185885 105.18523896 52.0625 94.75 C51.6495871 93.94463806 51.23667419 93.13927612 50.81124878 92.30950928 C49.61390705 89.97254771 48.41784545 87.63493809 47.22265625 85.296875 C46.87095367 84.60898895 46.5192511 83.92110291 46.15689087 83.21237183 C43.40726601 77.82291911 40.70606114 72.41212227 38 67 C37.67 107.92 37.34 148.84 37 191 C24.79 191 12.58 191 0 191 C0 127.97 0 64.94 0 0 Z " fill="#FBFBFB" transform="translate(237,163)"/>
<path d="M0 0 C104.03011094 0 104.03011094 0 123 18 C136.19171691 31.48721137 141.43971078 47.21911083 141.36132812 65.80419922 C141.04225511 83.96110398 133.75550356 99.49269921 120.98046875 112.3046875 C109.14345226 123.4227614 94.90700586 127.68691768 78.91796875 127.390625 C77.73777664 127.38496521 76.55758453 127.37930542 75.34162903 127.37347412 C71.62314887 127.35133049 67.90568207 127.30117539 64.1875 127.25 C61.64519634 127.22990658 59.10287737 127.21166084 56.56054688 127.1953125 C50.37336024 127.15153821 44.18675255 127.08485085 38 127 C38.00222061 127.78704819 38.00444122 128.57409637 38.00672913 129.38499451 C38.02673113 136.7869033 38.04197366 144.18879908 38.05181217 151.59072781 C38.0570402 155.39651577 38.06413638 159.20228148 38.07543945 163.00805664 C38.0862712 166.67792544 38.09227744 170.34777278 38.09487724 174.01765633 C38.09673097 175.42074992 38.1003506 176.82384229 38.10573006 178.2269268 C38.11294419 180.1856968 38.11340809 182.1444882 38.11352539 184.10327148 C38.115746 185.22023911 38.11796661 186.33720673 38.12025452 187.48802185 C38 190 38 190 37 191 C24.79 191 12.58 191 0 191 C0 127.97 0 64.94 0 0 Z " fill="#FBFBFB" transform="translate(70,163)"/>
<path d="M0 0 C7.755 -0.0825 15.51 -0.165 23.5 -0.25 C25.93310547 -0.28641602 28.36621094 -0.32283203 30.87304688 -0.36035156 C32.82160563 -0.37204418 34.77017423 -0.38223465 36.71875 -0.390625 C37.71422852 -0.41108887 38.70970703 -0.43155273 39.73535156 -0.45263672 C47.17293174 -0.45632966 52.55072215 0.98417122 58.20703125 5.9296875 C66.22383012 15.64347299 67.56192055 23.57859845 67 36 C66.14612327 43.90445887 63.0714739 51.60148815 57 56.9375 C52.6566577 59.92354783 49.20969047 61.25431365 43.93432617 61.22705078 C42.44298157 61.22668823 42.44298157 61.22668823 40.92150879 61.22631836 C39.37288147 61.21097046 39.37288147 61.21097046 37.79296875 61.1953125 C36.8347522 61.19329834 35.87653564 61.19128418 34.88928223 61.18920898 C31.32197254 61.17877289 27.75473129 61.15085033 24.1875 61.125 C16.205625 61.08375 8.22375 61.0425 0 61 C0 40.87 0 20.74 0 0 Z " fill="#020202" transform="translate(107,196)"/>
</svg>
